<?xml version="1.0" encoding="UTF-8"?>
<svg width="332px" height="41px" viewBox="0 0 332 41" version="1.1" xmlns="http://www.w3.org/2000/svg" xmlns:xlink="http://www.w3.org/1999/xlink">
    <!-- Generator: Sketch 47.1 (45422) - http://www.bohemiancoding.com/sketch -->
    <title>Logo</title>
    <desc>Created with Sketch.</desc>
    <defs></defs>
    <g id="Welcome" stroke="none" stroke-width="1" fill="none" fill-rule="evenodd">
        <g id="Desktop-HD-Copy-2" transform="translate(-554.000000, -61.000000)">
            <g id="Logo" transform="translate(554.000000, 61.000000)">
                <path d="M77.2917,24.3174 L77.2917,21.5774 C77.2917,19.8794 76.1737,19.5324 73.7377,19.5324 L56.7127,19.5324 L55.9717,20.2104 L55.9717,25.5534 L56.7987,26.3584 L73.7377,26.3584 C76.1737,26.3584 77.2917,26.0064 77.2917,24.3174 Z M77.2917,15.0944 C82.4887,15.0944 84.9237,16.4934 84.9247,20.0864 L84.9247,25.8144 C84.9247,29.4014 82.4887,30.7984 77.2927,30.7984 L56.7137,30.7984 L55.9727,31.4634 L55.9727,40.8184 L48.2097,40.8184 L48.2097,15.8714 L49.2487,15.0944 L77.2917,15.0944 Z M99.0808,19.813 L103.1858,14.775 L122.6588,40.824 L113.7748,40.824 L110.3608,36.115 L108.8368,35.187 L86.8468,35.187 L90.6178,30.548 L105.3908,30.548 L105.7608,29.6 L99.0808,19.813 Z M187.4177,35.7568 L188.2517,36.4348 L214.2697,36.4348 L214.2697,40.8228 L179.5237,40.8228 L179.5237,23.7348 L203.0787,23.7348 L203.0787,28.1428 L188.2167,28.1428 L187.4177,28.8328 L187.4177,35.7568 Z M179.524,19.942 L179.524,15.094 L214.636,15.094 L214.636,19.942 L179.524,19.942 Z M140.3606,19.6851 L139.5286,20.2091 L139.5286,35.2311 L140.3606,36.0141 L168.4136,36.0141 C168.2636,39.7451 166.0646,40.8241 160.3186,40.8241 L140.0596,40.8241 C133.6706,40.8241 131.6326,39.5771 131.6326,34.7371 L131.6326,21.1721 C131.6326,16.3371 133.6706,15.0901 140.0596,15.0901 L160.3186,15.0901 C165.9806,15.0901 168.2126,16.0881 168.6496,19.6851 L140.3606,19.6851 Z M29.3328,25.1182 C35.7168,25.1182 37.8188,26.3632 37.8188,31.1952 L37.8188,34.7382 C37.8188,39.5782 35.7168,40.8252 29.3328,40.8252 L8.3458,40.8252 C2.8298,40.8252 0.5258,39.8672 0.0008,36.4852 C-0.0262,36.3202 0.6778,35.9672 0.6778,35.9672 L6.8298,35.9672 L6.8298,35.9892 L30.3168,35.9892 L30.8428,35.2712 L30.8428,30.6692 L30.1978,30.1022 L9.6648,30.1022 C3.2798,30.1022 1.2388,28.8582 1.2388,24.0162 L1.2388,21.1732 C1.2388,16.3382 3.2798,15.0912 9.6648,15.0912 L28.9358,15.0912 C33.4798,15.0912 35.9268,16.2252 36.8718,18.6562 L36.4928,19.5832 L8.7508,19.5832 L8.1478,20.0492 L8.1478,24.4512 L8.7538,25.1182 L29.3328,25.1182 Z M236.7244,14.9878 L245.3254,21.2918 C242.4494,22.6988 239.8044,24.1248 237.3744,25.5318 L224.5464,16.1808 L225.1734,14.9878 L236.7244,14.9878 Z M247.075,32.6025 C249.245,30.7875 251.454,29.0535 253.69,27.4135 L270.526,39.7365 L270.042,40.8255 L258.349,40.8255 L247.075,32.6025 Z" id="Space" fill="#FFFFFF"></path>
                <path d="M235.0056,40.8057 L224.5546,40.8057 L223.6716,39.4227 C230.7776,32.5617 262.5596,3.1507 331.6436,-0.0003 C331.6436,-0.0003 273.6576,1.9557 235.0056,40.8057" id="X-swoosh" fill="#849199"></path>
            </g>
        </g>
    </g>
</svg>